# xmcd
#
# Track frame offsets:
#        150
#        17732
#        36270
#        55206
#        74347
#        92837
#        110607
#        128189
#        146743
#        165671
#        184813
#        203303
#
# Disc length: 2948 seconds
#
# Revision: 0
# Processed by: cddbd v1.5.2PL0 Copyright (c) Steve Scherf et al.
# Submitted via: CDGFix 3.8
#
DISCID=a80b820c
DTITLE=Kellie Coffey - CB20589
DYEAR=1900
DGENRE=Karaoke
TTITLE0=Kellie Coffey - Texas Plates (Vocals)
TTITLE1=Kellie Coffey - At The End Of The Day (Vocals)
TTITLE2=Kellie Coffey - When You Lie Next To Me (Vocals)
TTITLE3=Kellie Coffey - Dance With My Father (Vocals)
TTITLE4=Kellie Coffey - Outside Looking In (Vocals)
TTITLE5=Kellie Coffey - Whatever It Takes (Vocals)
TTITLE6=Kellie Coffey - Texas Plates
TTITLE7=Kellie Coffey - At The End Of The Day
TTITLE8=Kellie Coffey - When You Lie Next To Me
TTITLE9=Kellie Coffey - Dance With My Father
TTITLE10=Kellie Coffey - Outside Looking In
TTITLE11=Kellie Coffey - Whatever It Takes
EXTD=
EXTT0=
EXTT1=
EXTT2=
EXTT3=
EXTT4=
EXTT5=
EXTT6=
EXTT7=
EXTT8=
EXTT9=
EXTT10=
EXTT11=
PLAYORDER=
